<?xml version="1.0" encoding="utf-8"?>
<!-- Generator: Adobe Illustrator 25.2.3, SVG Export Plug-In . SVG Version: 6.00 Build 0)  -->
<svg version="1.1" id="图层_1" xmlns="http://www.w3.org/2000/svg" xmlns:xlink="http://www.w3.org/1999/xlink" x="0px" y="0px"
	 viewBox="0 0 977.3 611.3" style="enable-background:new 0 0 977.3 611.3;" xml:space="preserve">
<style type="text/css">
	.st0{opacity:0.989;fill-rule:evenodd;clip-rule:evenodd;fill:url(#SVGID_1_);enable-background:new    ;}
	.st1{fill:#FFFFFF;stroke:#231815;stroke-width:9;stroke-linecap:round;stroke-linejoin:round;stroke-miterlimit:10;}
	.st2{fill:url(#SVGID_2_);}
</style>
<linearGradient id="SVGID_1_" gradientUnits="userSpaceOnUse" x1="73.3848" y1="498.7883" x2="515.3809" y2="56.7922">
	<stop  offset="0.5776" style="stop-color:#12CFF3"/>
	<stop  offset="1" style="stop-color:#68F49A"/>
</linearGradient>
<path class="st0" d="M537.6,79.2c62.7,69.7,9.5,219.9-118.9,335.6C290.4,530.5,135.5,567.7,72.8,498c-23.6-26.3-30.8-64-23.7-106.9
	c0.8,18.8,6.4,35.5,17.2,48.8c47.5,58.7,178.3,31.5,292.2-60.8c113.9-92.3,167.7-214.7,120.2-273.4
	c-38.1-47.1-129.9-38.9-223.5,13.9c-11.6,16.3-10.5,27.9-8.4,38.5l0.3,1.7c0.8,3.7,1.6,7.2,2,10.9c-19.1-16-43.8-14-73.9,5.7
	l-1.7,1.1c29.1-23.6,38.8-47.2,29.1-70.7c2.8,1.2,5.5,2.7,8.3,4.3l1.5,0.8l1.5,0.8c8.6,4.7,18.3,8.7,34.1,4.8
	C362.6,38.3,483.9,19.6,537.6,79.2z"/>
<g transform="translate(57.00050354003906,73.46846771240234)">
	<g>
		<g transform="translate(0,38.34053039550781)">
			<g transform="translate(0,0)">
				<g transform="scale(1)">
					<g>
						<path class="st1" d="M104.3,244.2H57.6l-18.4-93.4l-3.3-4.9h35l13.2,68.2l33.3-68.2h33.3L104.3,244.2z M173.8,146h98.2
							l-1.6,16.7h-60l-3.3,28.3h55l-1.7,16.6h-56.5l-5.1,36.6h-33.3l13.4-91.6L173.8,146z M293.4,146h108.3l-6.6,50
							c0,1.6-0.4,3.2-1.1,4.6c-0.8,1.5-1.8,2.7-3,3.7c-1.3,1-2.7,1.8-4.3,2.4c-1.6,0.6-3.2,0.9-4.9,0.9l0,0H360l35,36.6h-36.6
							l-33.3-36.6l-5,36.6h-33.3l11.6-91.6L293.4,146z M366.8,162.7h-36.6l-3.5,28.3h36.8L366.8,162.7z M450.3,146h68.3l13.2,98.2
							H502l-3.5-26.7h-41.6l-11.7,26.7H417l38.3-93.4L450.3,146z M491.9,162.7h-11.6l-16.7,38.2h33.3L491.9,162.7z M553.7,146H597
							l18.4,61.6l34.9-61.6h35L672,244.2h-30l8.3-51.7l-26.6,45.1H597l-13.4-43.4l-6.6,50h-30l13.4-91.6L553.7,146z M709.3,146h94.9
							l-1.6,16.7h-55l-3.3,21.5h51.5l-1.5,16.7h-53.4l-3.3,26.7h58.3l-1.5,16.7H701l13.4-91.6L709.3,146z"/>
					</g>
				</g>
			</g>
			<g transform="translate(93.69499969482422,33.03999900817871)">
				<g transform="scale(1, 1)">
					<g transform="scale(1)">
						
							<linearGradient id="SVGID_2_" gradientUnits="userSpaceOnUse" x1="-946.7486" y1="397.0061" x2="-946.7486" y2="401.7212" gradientTransform="matrix(105.84 0 0 -7.472 100749.0391 3239.269)">
							<stop  offset="0" style="stop-color:#00C9FF"/>
							<stop  offset="1" style="stop-color:#92FE9D"/>
						</linearGradient>
						<path class="st2" d="M303.6,272.8h-8v-6.3h7.2c2.3,0,3.9-0.1,5-0.2c1.1-0.2,1.9-0.5,2.5-1l0,0c0.8-0.6,1.3-1.5,1.6-2.6
							c0.3-1.1,0.5-2.9,0.5-5.4l0,0v-19.8h7.4v19.8c0,2.5-0.1,4.3-0.3,5.6c-0.2,1.3-0.5,2.5-1.1,3.6l0,0c-1.3,3-3.8,4.9-7.3,5.7l0,0
							C309.5,272.7,306.9,272.8,303.6,272.8L303.6,272.8z M350.8,272.8H342l14.6-35.2h8.6l14.6,35.2H371l-3.4-8.1h-13.4L350.8,272.8
							z M365.9,258.4l-5-12.3l-5,12.3H365.9z M428.2,237.6h8.4l-15.4,35.2h-7.5l-14.8-35.2h8.4l10.3,26.5L428.2,237.6z M464.5,272.8
							h-8.8l14.6-35.2h8.6l14.6,35.2h-8.8l-3.4-8.1h-13.4L464.5,272.8z M479.7,258.4l-5-12.3l-5,12.3H479.7z M533.7,272.8H516v-6.3
							h16.1c2.6,0,4.3-0.2,5.1-0.7l0,0c1.2-0.8,1.8-1.9,1.8-3.3l0,0c0-1.7-0.7-3-2.2-3.8l0,0c-0.8-0.5-2.1-0.7-3.9-0.7l0,0h-6.5
							c-4,0-6.8-0.7-8.6-2.2l0,0c-1.1-0.9-2-2.1-2.6-3.4c-0.6-1.4-0.9-2.9-0.9-4.5l0,0c0-2.5,0.7-4.7,2.2-6.8l0,0
							c1.4-2,3.7-3.2,6.8-3.5l0,0c1.1-0.1,2.6-0.2,4.7-0.2l0,0h17.5v6.3h-15.8c-2.4,0-3.9,0.1-4.7,0.3l0,0c-1.6,0.4-2.4,1.6-2.4,3.6
							l0,0c0,1.7,0.7,2.8,2,3.4l0,0c0.9,0.4,2.4,0.6,4.4,0.6l0,0h5.7c2.9,0,5,0.2,6.5,0.7l0,0c2.5,0.9,4.2,2.3,5.2,4.5l0,0
							c0.8,1.7,1.1,3.5,1.1,5.4l0,0c0,2.2-0.5,4.1-1.5,5.8l0,0c-1.4,2.4-3.4,3.8-6.1,4.3l0,0C538.4,272.7,536.4,272.8,533.7,272.8
							L533.7,272.8z M587.7,266.5h10.8v6.3h-12.3c-2.3,0-4.1-0.1-5.3-0.4l0,0c-4.3-0.8-7.4-3.2-9.2-7.2l0,0c-1.2-2.7-1.8-6-1.8-9.9
							l0,0c0-4.7,0.9-8.5,2.8-11.5l0,0c1.3-2.1,3.1-3.7,5.4-4.7c2.2-1,5.1-1.5,8.6-1.5l0,0h12v6.3h-11.1c-3.3,0-5.8,0.9-7.4,2.7l0,0
							c-1.3,1.5-2,4.2-2,8l0,0c0,5.2,1,8.6,3,10.3l0,0C582.6,266,584.8,266.5,587.7,266.5L587.7,266.5z M636.1,259.5h-6v13.4h-7.5
							v-35.2h17.2c4.9,0,8.4,0.6,10.3,1.9l0,0c1.3,0.8,2.4,1.9,3.1,3.3c0.7,1.4,1.1,2.9,1.1,4.6l0,0c0,3.3-0.8,5.9-2.5,7.7l0,0
							c-1.1,1.1-2.5,1.9-4.2,2.5l0,0c1.4,0.5,2.4,1,3.1,1.6c0.7,0.5,1.3,1.3,1.9,2.4l0,0c0.4,0.9,0.7,1.7,0.9,2.5
							c0.2,0.8,0.4,1.9,0.5,3.4l0,0c0.2,2.5,0.5,4.3,0.8,5.3l0,0h-8.4c-0.3-0.8-0.5-2.5-0.8-5l0,0c-0.2-2-0.5-3.6-1.1-4.7
							c-0.6-1.1-1.4-1.9-2.5-2.6l0,0C640.7,259.8,638.7,259.4,636.1,259.5L636.1,259.5z M630.1,243.9v9.3h10.5c1.8,0,3-0.3,3.7-0.8
							l0,0c1.1-0.8,1.7-2.1,1.7-4.1l0,0c0-2.1-0.8-3.5-2.5-4.1l0,0c-0.6-0.2-1.6-0.3-2.9-0.3l0,0H630.1z M686.7,272.8h-7.5v-35.2
							h7.5V272.8z M732.2,260.5h-12.1v12.3h-7.5v-35.2h17.6c3.2,0,5.5,0.2,6.9,0.7l0,0c2.3,0.8,4.1,2.4,5.5,4.8l0,0
							c1,1.8,1.5,3.8,1.5,6l0,0c0,1.8-0.3,3.5-1,5.1s-1.6,2.9-2.7,3.9l0,0c-1.1,0.9-2.2,1.6-3.4,1.9S734.3,260.5,732.2,260.5
							L732.2,260.5z M720.1,243.9v10.3h10.2c1.8,0,3.1-0.3,3.8-0.8l0,0c1.1-0.9,1.6-2.4,1.6-4.6l0,0c0-2.4-0.8-3.9-2.5-4.5l0,0
							c-0.6-0.3-1.5-0.4-2.8-0.4l0,0H720.1z M775.5,272.8v-28.9h-11.2v-6.3h30.4v6.3H783v28.9H775.5z"/>
					</g>
				</g>
			</g>
		</g>
	</g>
</g>
</svg>
